<?xml version="1.0" ?><!DOCTYPE svg  PUBLIC '-//W3C//DTD SVG 1.1//EN'  'http://www.w3.org/Graphics/SVG/1.1/DTD/svg11.dtd'><svg height="512px" style="enable-background:new 0 0 512 512;" version="1.1" viewBox="0 0 512 512" width="512px" xml:space="preserve" xmlns="http://www.w3.org/2000/svg" xmlns:xlink="http://www.w3.org/1999/xlink"><g id="_x32_3-swift"><path d="M376,16H136C69.726,16,16,69.726,16,136v240c0,66.274,53.726,120,120,120h240c66.274,0,120-53.726,120-120V136   C496,69.726,442.274,16,376,16z M422.194,399.406c0,0-17.386-28.357-46.245-28.357c-27.898,0-44.402,28.357-100.72,28.357   c-125.256,0-184.631-102.57-184.631-102.57C203.477,369.771,280.6,318.087,280.6,318.087   c-50.965-28.879-159.064-167.189-159.064-167.189c94.235,78.619,134.901,99.263,134.901,99.263   c-24.452-19.614-92.599-115.757-92.599-115.757c54.531,54.053,162.928,129.423,162.928,129.423   c31.082-83.291-29.32-157.838-29.32-157.838c147.529,98.377,99.689,206.485,99.689,206.485S439.039,358.813,422.194,399.406z"/></g><g id="Layer_1"/></svg>